<svg width="238" height="83" viewBox="0 0 238 83" fill="none" xmlns="http://www.w3.org/2000/svg">
<path d="M18.9389 61.1557C15.1945 61.1557 11.9067 60.3555 9.06408 58.7552C6.23292 57.1548 4.02964 54.9144 2.45423 52.0224C0.89024 49.1303 0.102539 45.7925 0.102539 41.986V41.0715C0.102539 37.2193 0.89024 33.8472 2.45423 30.9552C4.01822 28.0631 6.19868 25.8227 8.98418 24.2223C11.7697 22.622 14.9547 21.8218 18.5508 21.8218C22.1468 21.8218 25.1264 22.5649 27.8091 24.0623C30.4919 25.5598 32.5925 27.6974 34.1108 30.4865C35.6291 33.2756 36.394 36.5449 36.394 40.2942V43.0262H6.09594C6.24434 47.0271 7.53435 50.1591 9.96596 52.411C12.3976 54.6629 15.4342 55.7946 19.0759 55.7946C22.261 55.7946 24.7154 55.063 26.4392 53.5884C28.163 52.1138 29.4759 50.3649 30.3892 48.3416L35.5492 50.845C34.7843 52.411 33.7341 53.9885 32.3984 55.5545C31.0513 57.1206 29.3161 58.4465 27.1584 59.5096C25.0008 60.5727 22.261 61.1099 18.9161 61.1099L18.9389 61.1557ZM6.18727 38.1224H30.3321C30.1266 34.6816 28.9508 31.9954 26.8046 30.0636C24.6469 28.1432 21.9071 27.1715 18.5622 27.1715C15.2173 27.1715 12.3861 28.1317 10.2057 30.0636C8.02523 31.9954 6.68956 34.6816 6.17584 38.1224H6.18727Z" fill="url(#paint0_linear_6109_126)"/>
<path d="M92.2864 75.2961V22.9195H98.1314V29.0808H99.193C100.152 27.2061 101.705 25.5372 103.862 24.0626C106.008 22.5881 109.011 21.8564 112.858 21.8564C116.043 21.8564 118.966 22.6337 121.625 24.1769C124.285 25.7201 126.409 27.9148 128.007 30.7497C129.605 33.5846 130.404 37.0139 130.404 41.0147V41.9977C130.404 45.9528 129.617 49.3707 128.053 52.2627C126.489 55.1548 124.365 57.3609 121.717 58.8812C119.068 60.4016 116.112 61.1674 112.869 61.1674C110.289 61.1674 108.098 60.8245 106.305 60.1387C104.501 59.4528 103.052 58.584 101.933 57.521C100.814 56.4579 99.9579 55.3719 99.3529 54.2517H98.2912V75.3074H92.2978L92.2864 75.2961ZM111.271 55.8292C115.118 55.8292 118.246 54.6061 120.644 52.137C123.041 49.6794 124.251 46.2501 124.251 41.8377V41.1519C124.251 36.7395 123.052 33.3102 120.644 30.8526C118.235 28.3949 115.118 27.1604 111.271 27.1604C107.424 27.1604 104.353 28.3949 101.899 30.8526C99.4442 33.3102 98.2113 36.7395 98.2113 41.1519V41.8377C98.2113 46.2501 99.4442 49.6794 101.899 52.137C104.353 54.5947 107.481 55.8292 111.271 55.8292Z" fill="url(#paint1_linear_6109_126)"/>
<path d="M156.434 61.1557C152.689 61.1557 149.402 60.3555 146.559 58.7552C143.728 57.1548 141.525 54.9144 139.949 52.0224C138.385 49.1303 137.597 45.7925 137.597 41.986V41.0715C137.597 37.2193 138.385 33.8472 139.949 30.9552C141.513 28.0631 143.694 25.8227 146.479 24.2223C149.265 22.622 152.45 21.8218 156.046 21.8218C159.642 21.8218 162.621 22.5649 165.304 24.0623C167.987 25.5598 170.087 27.6974 171.606 30.4865C173.124 33.2756 173.889 36.5449 173.889 40.2942V43.0262H143.591C143.739 47.0271 145.029 50.1591 147.461 52.411C149.892 54.6629 152.929 55.7946 156.571 55.7946C159.756 55.7946 162.21 55.063 163.934 53.5884C165.658 52.1138 166.971 50.3649 167.884 48.3416L173.044 50.845C172.279 52.411 171.229 53.9885 169.893 55.5545C168.546 57.1206 166.811 58.4465 164.653 59.5096C162.496 60.5727 159.756 61.1099 156.411 61.1099L156.434 61.1557ZM143.682 38.1224H167.827C167.621 34.6816 166.446 31.9954 164.299 30.0636C162.142 28.1432 159.402 27.1715 156.057 27.1715C152.712 27.1715 149.881 28.1317 147.701 30.0636C145.52 31.9954 144.184 34.6816 143.671 38.1224H143.682Z" fill="url(#paint2_linear_6109_126)"/>
<path d="M182.724 60.0929V22.9195H188.569V27.4804H189.631C190.293 25.8572 191.297 24.6684 192.667 23.9026C194.037 23.1367 195.829 22.7595 198.056 22.7595H202.462V28.2349H197.679C194.996 28.2349 192.827 28.9779 191.183 30.4753C189.539 31.9728 188.717 34.2933 188.717 37.4368V60.0929H182.724Z" fill="url(#paint3_linear_6109_126)"/>
<path d="M225.842 60.0926C223.719 60.0926 222.086 59.5096 220.945 58.3436C219.803 57.1777 219.232 55.5774 219.232 53.5541V28.166H208.068V22.9192H219.232V9.6936H225.226V22.9192H237.372V28.166H225.226V52.651C225.226 54.1713 225.956 54.9372 227.429 54.9372H235.706V60.104H225.831L225.842 60.0926Z" fill="url(#paint4_linear_6109_126)"/>
<path fill-rule="evenodd" clip-rule="evenodd" d="M21.5751 83C59.5675 47.2669 62.5699 46.1352 81.8059 60.3096C67.6501 41.037 68.7802 38.0421 104.467 0C66.4742 35.7331 63.4718 36.8648 44.2358 22.6904C58.3917 41.963 57.2615 44.9579 21.5751 83Z" fill="url(#paint5_linear_6109_126)"/>
<defs>
<linearGradient id="paint0_linear_6109_126" x1="259.725" y1="44.215" x2="-170.59" y2="39.381" gradientUnits="userSpaceOnUse">
<stop stop-color="#DDF6A2"/>
<stop offset="1" stop-color="#859398"/>
</linearGradient>
<linearGradient id="paint1_linear_6109_126" x1="259.656" y1="50.3423" x2="-170.658" y2="45.5082" gradientUnits="userSpaceOnUse">
<stop stop-color="#DDF6A2"/>
<stop offset="1" stop-color="#859398"/>
</linearGradient>
<linearGradient id="paint2_linear_6109_126" x1="259.748" y1="42.6718" x2="-170.566" y2="37.8378" gradientUnits="userSpaceOnUse">
<stop stop-color="#DDF6A2"/>
<stop offset="1" stop-color="#859398"/>
</linearGradient>
<linearGradient id="paint3_linear_6109_126" x1="259.748" y1="42.1806" x2="-170.567" y2="37.358" gradientUnits="userSpaceOnUse">
<stop stop-color="#DDF6A2"/>
<stop offset="1" stop-color="#859398"/>
</linearGradient>
<linearGradient id="paint4_linear_6109_126" x1="259.828" y1="35.276" x2="-170.487" y2="30.442" gradientUnits="userSpaceOnUse">
<stop stop-color="#DDF6A2"/>
<stop offset="1" stop-color="#859398"/>
</linearGradient>
<linearGradient id="paint5_linear_6109_126" x1="259.736" y1="43.7119" x2="-170.579" y2="38.8892" gradientUnits="userSpaceOnUse">
<stop stop-color="#DDF6A2"/>
<stop offset="1" stop-color="#859398"/>
</linearGradient>
</defs>
</svg>
